<svg xmlns="http://www.w3.org/2000/svg" xmlns:xlink="http://www.w3.org/1999/xlink" width="500" zoomAndPan="magnify" viewBox="0 0 375 374.999991" height="500" preserveAspectRatio="xMidYMid meet" version="1.0"><defs><g/><clipPath id="1eae57385c"><path d="M 187.5 0 C 83.945312 0 0 83.945312 0 187.5 C 0 291.054688 83.945312 375 187.5 375 C 291.054688 375 375 291.054688 375 187.5 C 375 83.945312 291.054688 0 187.5 0 Z M 187.5 0 " clip-rule="nonzero"/></clipPath><clipPath id="9dc3682842"><path d="M 76.777344 73 L 298.027344 73 L 298.027344 302 L 76.777344 302 Z M 76.777344 73 " clip-rule="nonzero"/></clipPath></defs><g clip-path="url(#1eae57385c)"><rect x="-37.5" width="450" fill="#ffffff" y="-37.499999" height="449.999989" fill-opacity="1"/></g><g clip-path="url(#9dc3682842)"><path fill="#3d3b3a" d="M 159.660156 76.703125 C 161.453125 76.253906 163.257812 75.847656 165.070312 75.484375 C 166.882812 75.121094 168.703125 74.804688 170.535156 74.53125 C 172.363281 74.257812 174.199219 74.027344 176.039062 73.84375 C 177.878906 73.65625 179.722656 73.519531 181.566406 73.421875 C 183.414062 73.328125 185.261719 73.277344 187.113281 73.273438 C 188.960938 73.265625 190.808594 73.304688 192.65625 73.390625 C 194.503906 73.476562 196.347656 73.605469 198.191406 73.777344 C 200.03125 73.953125 201.867188 74.171875 203.699219 74.433594 C 205.527344 74.699219 207.351562 75.007812 209.167969 75.359375 C 210.980469 75.710938 212.789062 76.105469 214.585938 76.546875 C 216.378906 76.984375 218.164062 77.46875 219.9375 77.996094 C 221.710938 78.519531 223.46875 79.089844 225.214844 79.703125 C 226.960938 80.3125 228.6875 80.96875 230.402344 81.664062 C 232.117188 82.359375 233.8125 83.097656 235.488281 83.875 C 237.167969 84.652344 238.824219 85.472656 240.460938 86.328125 C 242.101562 87.1875 243.714844 88.085938 245.308594 89.023438 C 246.90625 89.960938 248.476562 90.9375 250.023438 91.949219 C 251.570312 92.964844 253.089844 94.015625 254.585938 95.101562 C 256.082031 96.191406 257.550781 97.3125 258.992188 98.472656 C 260.433594 99.628906 261.84375 100.824219 263.226562 102.050781 C 264.609375 103.277344 265.964844 104.539062 267.285156 105.832031 C 268.605469 107.125 269.898438 108.449219 271.152344 109.804688 C 272.410156 111.164062 273.636719 112.546875 274.824219 113.964844 C 276.015625 115.378906 277.171875 116.820312 278.292969 118.292969 C 279.410156 119.765625 280.496094 121.261719 281.542969 122.789062 C 282.589844 124.3125 283.597656 125.859375 284.570312 127.433594 C 285.542969 129.007812 286.476562 130.601562 287.371094 132.222656 C 288.265625 133.839844 289.121094 135.480469 289.9375 137.140625 C 290.75 138.800781 291.523438 140.476562 292.257812 142.175781 C 292.992188 143.875 293.683594 145.589844 294.332031 147.320312 C 294.984375 149.050781 295.589844 150.796875 296.15625 152.558594 C 296.722656 154.320312 297.242188 156.09375 297.722656 157.878906 C 297.898438 158.539062 298.074219 159.210938 298.242188 159.894531 L 296.496094 160.503906 C 296.316406 159.785156 296.136719 159.070312 295.941406 158.351562 C 295.46875 156.582031 294.949219 154.824219 294.390625 153.078125 C 293.832031 151.335938 293.226562 149.605469 292.582031 147.886719 C 291.9375 146.171875 291.25 144.472656 290.523438 142.792969 C 289.792969 141.109375 289.023438 139.445312 288.214844 137.800781 C 287.40625 136.15625 286.554688 134.535156 285.667969 132.929688 C 284.777344 131.328125 283.851562 129.75 282.882812 128.191406 C 281.917969 126.632812 280.914062 125.101562 279.871094 123.59375 C 278.828125 122.085938 277.75 120.601562 276.636719 119.148438 C 275.523438 117.691406 274.375 116.265625 273.191406 114.867188 C 272.007812 113.464844 270.789062 112.097656 269.539062 110.757812 C 268.285156 109.417969 267.003906 108.109375 265.6875 106.832031 C 264.371094 105.554688 263.027344 104.3125 261.652344 103.101562 C 260.273438 101.890625 258.871094 100.714844 257.4375 99.574219 C 256.003906 98.429688 254.542969 97.324219 253.054688 96.253906 C 251.566406 95.183594 250.054688 94.148438 248.515625 93.152344 C 246.976562 92.15625 245.414062 91.199219 243.828125 90.277344 C 242.242188 89.359375 240.636719 88.480469 239.007812 87.636719 C 237.378906 86.796875 235.730469 85.996094 234.0625 85.234375 C 232.398438 84.472656 230.710938 83.753906 229.007812 83.078125 C 227.304688 82.398438 225.585938 81.761719 223.851562 81.167969 C 222.117188 80.574219 220.371094 80.023438 218.609375 79.515625 C 216.847656 79.007812 215.078125 78.542969 213.292969 78.121094 C 211.507812 77.699219 209.714844 77.320312 207.914062 76.988281 C 206.113281 76.652344 204.300781 76.363281 202.484375 76.121094 C 200.667969 75.875 198.847656 75.675781 197.023438 75.519531 C 195.195312 75.363281 193.367188 75.25 191.535156 75.183594 C 189.703125 75.117188 187.871094 75.097656 186.039062 75.121094 C 184.207031 75.144531 182.375 75.210938 180.546875 75.324219 C 178.714844 75.4375 176.890625 75.59375 175.070312 75.796875 C 173.246094 76 171.429688 76.246094 169.621094 76.539062 C 167.8125 76.828125 166.011719 77.164062 164.21875 77.542969 C 162.425781 77.921875 160.640625 78.347656 158.867188 78.8125 C 159.144531 78.117188 159.414062 77.417969 159.660156 76.707031 Z M 78.523438 214.730469 C 78.671875 215.320312 78.820312 215.902344 78.976562 216.488281 C 79.453125 218.265625 79.972656 220.027344 80.535156 221.777344 C 81.097656 223.527344 81.703125 225.261719 82.347656 226.980469 C 82.996094 228.699219 83.683594 230.402344 84.414062 232.089844 C 85.148438 233.773438 85.917969 235.441406 86.730469 237.089844 C 87.542969 238.738281 88.394531 240.363281 89.289062 241.972656 C 90.179688 243.578125 91.113281 245.160156 92.082031 246.722656 C 93.054688 248.28125 94.0625 249.816406 95.105469 251.328125 C 96.152344 252.839844 97.234375 254.324219 98.351562 255.78125 C 99.472656 257.238281 100.625 258.667969 101.8125 260.070312 C 103.003906 261.472656 104.222656 262.84375 105.480469 264.183594 C 106.734375 265.527344 108.023438 266.835938 109.34375 268.113281 C 110.664062 269.390625 112.015625 270.636719 113.398438 271.847656 C 114.777344 273.058594 116.1875 274.238281 117.628906 275.378906 C 119.066406 276.523438 120.53125 277.628906 122.027344 278.699219 C 123.519531 279.769531 125.039062 280.804688 126.582031 281.800781 C 128.125 282.796875 129.695312 283.753906 131.285156 284.671875 C 132.875 285.59375 134.488281 286.472656 136.125 287.3125 C 137.757812 288.152344 139.410156 288.949219 141.085938 289.710938 C 142.757812 290.46875 144.449219 291.1875 146.160156 291.863281 C 147.867188 292.539062 149.589844 293.171875 151.332031 293.761719 C 153.070312 294.351562 154.824219 294.902344 156.589844 295.40625 C 158.359375 295.910156 160.136719 296.375 161.925781 296.792969 C 163.714844 297.207031 165.511719 297.582031 167.320312 297.914062 C 169.128906 298.242188 170.945312 298.527344 172.765625 298.765625 C 174.585938 299.007812 176.414062 299.203125 178.246094 299.355469 C 180.078125 299.503906 181.910156 299.609375 183.746094 299.671875 C 185.582031 299.734375 187.421875 299.75 189.257812 299.71875 C 191.09375 299.691406 192.929688 299.617188 194.765625 299.496094 C 196.597656 299.375 198.425781 299.210938 200.253906 299.003906 C 202.078125 298.792969 203.898438 298.539062 205.710938 298.242188 C 207.523438 297.941406 209.328125 297.601562 211.125 297.214844 C 212.921875 296.828125 214.707031 296.394531 216.480469 295.921875 C 216.195312 296.617188 215.917969 297.320312 215.660156 298.03125 C 213.863281 298.488281 212.058594 298.902344 210.242188 299.273438 C 208.425781 299.640625 206.601562 299.964844 204.769531 300.246094 C 202.9375 300.527344 201.101562 300.765625 199.257812 300.953125 C 197.414062 301.144531 195.566406 301.292969 193.714844 301.394531 C 191.863281 301.496094 190.011719 301.550781 188.15625 301.5625 C 186.304688 301.574219 184.453125 301.539062 182.597656 301.460938 C 180.746094 301.378906 178.898438 301.257812 177.054688 301.085938 C 175.207031 300.917969 173.367188 300.703125 171.53125 300.445312 C 169.695312 300.1875 167.867188 299.882812 166.046875 299.535156 C 164.226562 299.1875 162.414062 298.792969 160.613281 298.359375 C 158.8125 297.921875 157.023438 297.441406 155.246094 296.917969 C 153.464844 296.394531 151.703125 295.828125 149.953125 295.21875 C 148.199219 294.609375 146.464844 293.960938 144.746094 293.265625 C 143.027344 292.570312 141.328125 291.835938 139.644531 291.058594 C 137.960938 290.285156 136.296875 289.46875 134.65625 288.609375 C 133.011719 287.75 131.390625 286.855469 129.789062 285.917969 C 128.191406 284.980469 126.613281 284.007812 125.0625 282.992188 C 123.511719 281.980469 121.984375 280.929688 120.484375 279.84375 C 118.984375 278.753906 117.507812 277.632812 116.0625 276.472656 C 114.617188 275.3125 113.199219 274.117188 111.8125 272.890625 C 110.421875 271.660156 109.066406 270.398438 107.738281 269.105469 C 106.414062 267.8125 105.117188 266.484375 103.855469 265.128906 C 102.59375 263.769531 101.367188 262.382812 100.171875 260.964844 C 98.976562 259.546875 97.816406 258.101562 96.695312 256.628906 C 95.570312 255.15625 94.480469 253.65625 93.429688 252.128906 C 92.378906 250.601562 91.367188 249.050781 90.390625 247.472656 C 89.414062 245.898438 88.480469 244.296875 87.582031 242.675781 C 86.683594 241.054688 85.828125 239.414062 85.007812 237.75 C 84.191406 236.085938 83.414062 234.402344 82.679688 232.703125 C 81.941406 231 81.25 229.28125 80.597656 227.546875 C 79.945312 225.8125 79.335938 224.0625 78.769531 222.296875 C 78.203125 220.53125 77.679688 218.753906 77.199219 216.964844 C 77.054688 216.425781 76.917969 215.882812 76.777344 215.34375 Z M 78.523438 214.730469 " fill-opacity="1" fill-rule="evenodd"/></g><g fill="#000000" fill-opacity="1"><g transform="translate(129.05509, 171.83088)"><g><path d="M 15.1875 -4.765625 L 7.109375 -4.765625 L 5.125 0 L 0.390625 0 L 11.390625 -25.3125 L 11.65625 -25.3125 L 22.640625 0 L 17.078125 0 Z M 13.59375 -8.796875 L 11.25 -14.734375 L 8.796875 -8.796875 Z M 13.59375 -8.796875 "/></g></g></g><g fill="#000000" fill-opacity="1"><g transform="translate(178.563227, 171.83088)"><g><path d="M 23.625 0 L 18.828125 0 L 18.828125 -9.890625 L 7.9375 -9.890625 L 7.9375 0 L 3.140625 0 L 3.140625 -24.359375 L 7.9375 -24.359375 L 7.9375 -14.53125 L 18.828125 -14.53125 L 18.828125 -24.359375 L 23.625 -24.359375 Z M 23.625 0 "/></g></g></g><g fill="#000000" fill-opacity="1"><g transform="translate(231.810943, 171.83088)"><g><path d="M 28.234375 -25.34375 L 28.234375 0 L 23.4375 0 L 23.4375 -11.609375 L 15.484375 -0.328125 L 15.421875 -0.328125 L 7.78125 -10.890625 L 7.78125 0 L 3.140625 0 L 3.140625 -25.34375 L 3.171875 -25.34375 L 15.515625 -7.84375 L 28.15625 -25.34375 Z M 28.234375 -25.34375 "/></g></g></g><g fill="#000000" fill-opacity="1"><g transform="translate(61.268746, 202.103101)"><g><path d="M 5.328125 -2.09375 L 2.265625 -2.09375 L 1.40625 0 L 0.359375 0 L 3.84375 -8.3125 L 3.90625 -8.3125 L 7.390625 0 L 6.15625 0 Z M 4.96875 -3.015625 L 3.828125 -5.9375 L 2.640625 -3.015625 Z M 4.96875 -3.015625 "/></g></g></g><g fill="#000000" fill-opacity="1"><g transform="translate(74.506326, 202.103101)"><g><path d="M 7 -0.59375 C 6.75 -0.425781 6.425781 -0.269531 6.03125 -0.125 C 5.632812 0.0195312 5.207031 0.09375 4.75 0.09375 C 3.925781 0.09375 3.203125 -0.0859375 2.578125 -0.453125 C 1.960938 -0.816406 1.488281 -1.300781 1.15625 -1.90625 C 0.820312 -2.519531 0.65625 -3.191406 0.65625 -3.921875 C 0.65625 -4.710938 0.820312 -5.421875 1.15625 -6.046875 C 1.5 -6.679688 1.96875 -7.175781 2.5625 -7.53125 C 3.164062 -7.882812 3.84375 -8.0625 4.59375 -8.0625 C 5.039062 -8.0625 5.457031 -8 5.84375 -7.875 C 6.238281 -7.757812 6.59375 -7.609375 6.90625 -7.421875 L 6.46875 -6.421875 C 5.863281 -6.828125 5.253906 -7.03125 4.640625 -7.03125 C 4.117188 -7.03125 3.640625 -6.894531 3.203125 -6.625 C 2.765625 -6.351562 2.414062 -5.984375 2.15625 -5.515625 C 1.894531 -5.054688 1.765625 -4.546875 1.765625 -3.984375 C 1.765625 -3.410156 1.882812 -2.890625 2.125 -2.421875 C 2.363281 -1.960938 2.703125 -1.601562 3.140625 -1.34375 C 3.585938 -1.082031 4.101562 -0.953125 4.6875 -0.953125 C 5.40625 -0.953125 6.023438 -1.15625 6.546875 -1.5625 Z M 7 -0.59375 "/></g></g></g><g fill="#000000" fill-opacity="1"><g transform="translate(87.666796, 202.103101)"><g><path d="M 5.328125 -2.09375 L 2.265625 -2.09375 L 1.40625 0 L 0.359375 0 L 3.84375 -8.3125 L 3.90625 -8.3125 L 7.390625 0 L 6.15625 0 Z M 4.96875 -3.015625 L 3.828125 -5.9375 L 2.640625 -3.015625 Z M 4.96875 -3.015625 "/></g></g></g><g fill="#000000" fill-opacity="1"><g transform="translate(100.904377, 202.103101)"><g><path d="M 1.140625 -7.96875 L 3.328125 -7.96875 C 4.328125 -7.96875 5.148438 -7.769531 5.796875 -7.375 C 6.441406 -6.988281 6.914062 -6.484375 7.21875 -5.859375 C 7.519531 -5.242188 7.671875 -4.585938 7.671875 -3.890625 C 7.671875 -3.117188 7.488281 -2.4375 7.125 -1.84375 C 6.757812 -1.25 6.273438 -0.789062 5.671875 -0.46875 C 5.078125 -0.15625 4.425781 0 3.71875 0 L 1.140625 0 Z M 3.515625 -1.03125 C 4.097656 -1.03125 4.617188 -1.144531 5.078125 -1.375 C 5.546875 -1.613281 5.910156 -1.953125 6.171875 -2.390625 C 6.429688 -2.835938 6.5625 -3.363281 6.5625 -3.96875 C 6.5625 -4.59375 6.425781 -5.128906 6.15625 -5.578125 C 5.882812 -6.023438 5.519531 -6.363281 5.0625 -6.59375 C 4.613281 -6.832031 4.128906 -6.953125 3.609375 -6.953125 L 2.21875 -6.953125 L 2.21875 -1.03125 Z M 3.515625 -1.03125 "/></g></g></g><g fill="#000000" fill-opacity="1"><g transform="translate(114.725789, 202.103101)"><g><path d="M 6.328125 -7.96875 L 6.328125 -6.953125 L 2.21875 -6.953125 L 2.21875 -4.515625 L 5.890625 -4.515625 L 5.890625 -3.5 L 2.21875 -3.5 L 2.21875 -1.03125 L 6.484375 -1.03125 L 6.484375 0 L 1.140625 0 L 1.140625 -7.96875 Z M 6.328125 -7.96875 "/></g></g></g><g fill="#000000" fill-opacity="1"><g transform="translate(127.434618, 202.103101)"><g><path d="M 9.078125 -8.234375 L 9.078125 0 L 8.015625 0 L 8.015625 -5.15625 L 5.078125 -1 L 5.0625 -1 L 2.1875 -5.015625 L 2.1875 0 L 1.140625 0 L 1.140625 -8.234375 L 1.15625 -8.234375 L 5.078125 -2.671875 L 9.0625 -8.234375 Z M 9.078125 -8.234375 "/></g></g></g><g fill="#000000" fill-opacity="1"><g transform="translate(143.161735, 202.103101)"><g><path d="M 2.21875 -7.96875 L 2.21875 0 L 1.140625 0 L 1.140625 -7.96875 Z M 2.21875 -7.96875 "/></g></g></g><g fill="#000000" fill-opacity="1"><g transform="translate(152.037125, 202.103101)"><g><path d="M 5.671875 0 L 3.59375 -3.1875 L 1.703125 0 L 0.375 0 L 3 -4.109375 L 0.484375 -7.96875 L 1.84375 -7.96875 L 3.828125 -4.9375 L 5.640625 -7.96875 L 6.921875 -7.96875 L 4.40625 -4.03125 L 7.03125 0 Z M 5.671875 0 "/></g></g></g><g fill="#000000" fill-opacity="1"><g transform="translate(164.966276, 202.103101)"><g/></g></g><g fill="#000000" fill-opacity="1"><g transform="translate(173.962842, 202.103101)"><g><path d="M 7.46875 0 L 6.390625 0 L 6.390625 -3.5 L 2.21875 -3.5 L 2.21875 0 L 1.140625 0 L 1.140625 -7.96875 L 2.21875 -7.96875 L 2.21875 -4.515625 L 6.390625 -4.515625 L 6.390625 -7.96875 L 7.46875 -7.96875 Z M 7.46875 0 "/></g></g></g><g fill="#000000" fill-opacity="1"><g transform="translate(188.081681, 202.103101)"><g><path d="M 2.125 -2.828125 C 2.125 -2.472656 2.207031 -2.148438 2.375 -1.859375 C 2.539062 -1.578125 2.769531 -1.351562 3.0625 -1.1875 C 3.351562 -1.03125 3.675781 -0.953125 4.03125 -0.953125 C 4.394531 -0.953125 4.722656 -1.03125 5.015625 -1.1875 C 5.316406 -1.351562 5.550781 -1.578125 5.71875 -1.859375 C 5.894531 -2.148438 5.984375 -2.472656 5.984375 -2.828125 L 5.984375 -7.96875 L 7.03125 -7.96875 L 7.03125 -2.796875 C 7.03125 -2.222656 6.894531 -1.71875 6.625 -1.28125 C 6.363281 -0.84375 6.003906 -0.503906 5.546875 -0.265625 C 5.085938 -0.0234375 4.582031 0.09375 4.03125 0.09375 C 3.476562 0.09375 2.972656 -0.0234375 2.515625 -0.265625 C 2.054688 -0.503906 1.695312 -0.84375 1.4375 -1.28125 C 1.175781 -1.71875 1.046875 -2.222656 1.046875 -2.796875 L 1.046875 -7.96875 L 2.125 -7.96875 Z M 2.125 -2.828125 "/></g></g></g><g fill="#000000" fill-opacity="1"><g transform="translate(201.660758, 202.103101)"><g><path d="M 4.703125 -4.140625 C 5.160156 -3.960938 5.519531 -3.707031 5.78125 -3.375 C 6.039062 -3.050781 6.171875 -2.671875 6.171875 -2.234375 C 6.171875 -1.734375 6.046875 -1.3125 5.796875 -0.96875 C 5.554688 -0.632812 5.234375 -0.390625 4.828125 -0.234375 C 4.429688 -0.078125 3.992188 0 3.515625 0 L 1.140625 0 L 1.140625 -7.96875 L 3.203125 -7.96875 C 4.023438 -7.96875 4.660156 -7.800781 5.109375 -7.46875 C 5.554688 -7.132812 5.78125 -6.632812 5.78125 -5.96875 C 5.78125 -5.550781 5.6875 -5.1875 5.5 -4.875 C 5.3125 -4.5625 5.046875 -4.316406 4.703125 -4.140625 Z M 2.21875 -4.484375 L 3.4375 -4.484375 C 3.84375 -4.484375 4.148438 -4.601562 4.359375 -4.84375 C 4.566406 -5.082031 4.671875 -5.382812 4.671875 -5.75 C 4.671875 -6.15625 4.546875 -6.457031 4.296875 -6.65625 C 4.046875 -6.851562 3.695312 -6.953125 3.25 -6.953125 L 2.21875 -6.953125 Z M 3.46875 -1 C 3.9375 -1 4.320312 -1.101562 4.625 -1.3125 C 4.925781 -1.519531 5.078125 -1.828125 5.078125 -2.234375 C 5.078125 -2.648438 4.910156 -2.957031 4.578125 -3.15625 C 4.253906 -3.351562 3.859375 -3.453125 3.390625 -3.453125 L 2.21875 -3.453125 L 2.21875 -1 Z M 3.46875 -1 "/></g></g></g><g fill="#000000" fill-opacity="1"><g transform="translate(213.995062, 202.103101)"><g/></g></g><g fill="#000000" fill-opacity="1"><g transform="translate(222.991628, 202.103101)"><g><path d="M 9.078125 -8.234375 L 9.078125 0 L 8.015625 0 L 8.015625 -5.15625 L 5.078125 -1 L 5.0625 -1 L 2.1875 -5.015625 L 2.1875 0 L 1.140625 0 L 1.140625 -8.234375 L 1.15625 -8.234375 L 5.078125 -2.671875 L 9.0625 -8.234375 Z M 9.078125 -8.234375 "/></g></g></g><g fill="#000000" fill-opacity="1"><g transform="translate(238.718739, 202.103101)"><g><path d="M 5.328125 -2.09375 L 2.265625 -2.09375 L 1.40625 0 L 0.359375 0 L 3.84375 -8.3125 L 3.90625 -8.3125 L 7.390625 0 L 6.15625 0 Z M 4.96875 -3.015625 L 3.828125 -5.9375 L 2.640625 -3.015625 Z M 4.96875 -3.015625 "/></g></g></g><g fill="#000000" fill-opacity="1"><g transform="translate(251.956325, 202.103101)"><g><path d="M 8.09375 -7.96875 L 8.09375 0.265625 L 8.0625 0.265625 L 2.203125 -5.6875 L 2.234375 0 L 1.140625 0 L 1.140625 -8.21875 L 1.203125 -8.21875 L 7.046875 -2.203125 L 7.03125 -7.96875 Z M 8.09375 -7.96875 "/></g></g></g><g fill="#000000" fill-opacity="1"><g transform="translate(266.703043, 202.103101)"><g><path d="M 5.328125 -2.09375 L 2.265625 -2.09375 L 1.40625 0 L 0.359375 0 L 3.84375 -8.3125 L 3.90625 -8.3125 L 7.390625 0 L 6.15625 0 Z M 4.96875 -3.015625 L 3.828125 -5.9375 L 2.640625 -3.015625 Z M 4.96875 -3.015625 "/></g></g></g><g fill="#000000" fill-opacity="1"><g transform="translate(279.940629, 202.103101)"><g><path d="M 7.40625 -0.6875 C 7.15625 -0.488281 6.769531 -0.304688 6.25 -0.140625 C 5.738281 0.015625 5.265625 0.09375 4.828125 0.09375 C 3.992188 0.09375 3.257812 -0.078125 2.625 -0.421875 C 1.988281 -0.765625 1.5 -1.234375 1.15625 -1.828125 C 0.820312 -2.421875 0.65625 -3.09375 0.65625 -3.84375 C 0.65625 -4.707031 0.835938 -5.457031 1.203125 -6.09375 C 1.566406 -6.726562 2.0625 -7.210938 2.6875 -7.546875 C 3.3125 -7.890625 4 -8.0625 4.75 -8.0625 C 5.195312 -8.0625 5.617188 -8.007812 6.015625 -7.90625 C 6.410156 -7.800781 6.765625 -7.660156 7.078125 -7.484375 L 6.734375 -6.5 C 6.492188 -6.632812 6.195312 -6.75 5.84375 -6.84375 C 5.488281 -6.945312 5.164062 -7 4.875 -7 C 4.257812 -7 3.710938 -6.875 3.234375 -6.625 C 2.765625 -6.375 2.398438 -6.015625 2.140625 -5.546875 C 1.878906 -5.085938 1.75 -4.546875 1.75 -3.921875 C 1.75 -3.347656 1.878906 -2.835938 2.140625 -2.390625 C 2.398438 -1.941406 2.765625 -1.59375 3.234375 -1.34375 C 3.703125 -1.101562 4.238281 -0.984375 4.84375 -0.984375 C 5.125 -0.984375 5.394531 -1.007812 5.65625 -1.0625 C 5.925781 -1.113281 6.148438 -1.191406 6.328125 -1.296875 L 6.328125 -2.875 L 4.734375 -2.875 L 4.734375 -3.90625 L 7.40625 -3.90625 Z M 7.40625 -0.6875 "/></g></g></g><g fill="#000000" fill-opacity="1"><g transform="translate(293.740006, 202.103101)"><g><path d="M 6.328125 -7.96875 L 6.328125 -6.953125 L 2.21875 -6.953125 L 2.21875 -4.515625 L 5.890625 -4.515625 L 5.890625 -3.5 L 2.21875 -3.5 L 2.21875 -1.03125 L 6.484375 -1.03125 L 6.484375 0 L 1.140625 0 L 1.140625 -7.96875 Z M 6.328125 -7.96875 "/></g></g></g><g fill="#000000" fill-opacity="1"><g transform="translate(306.448829, 202.103101)"><g><path d="M 5.53125 0 L 3.65625 -2.953125 C 3.601562 -2.941406 3.515625 -2.9375 3.390625 -2.9375 L 2.21875 -2.9375 L 2.21875 0 L 1.140625 0 L 1.140625 -7.96875 L 3.28125 -7.96875 C 3.820312 -7.96875 4.304688 -7.875 4.734375 -7.6875 C 5.160156 -7.5 5.492188 -7.21875 5.734375 -6.84375 C 5.972656 -6.46875 6.09375 -6.019531 6.09375 -5.5 C 6.09375 -5.007812 5.984375 -4.554688 5.765625 -4.140625 C 5.554688 -3.734375 5.226562 -3.421875 4.78125 -3.203125 L 6.78125 0 Z M 3.375 -3.96875 C 3.945312 -3.96875 4.359375 -4.117188 4.609375 -4.421875 C 4.867188 -4.722656 5 -5.066406 5 -5.453125 C 5 -5.691406 4.941406 -5.925781 4.828125 -6.15625 C 4.722656 -6.382812 4.554688 -6.570312 4.328125 -6.71875 C 4.097656 -6.875 3.804688 -6.953125 3.453125 -6.953125 L 2.21875 -6.953125 L 2.21875 -3.96875 Z M 3.375 -3.96875 "/></g></g></g></svg>