<svg xmlns="http://www.w3.org/2000/svg" version="1.1" xmlns:xlink="http://www.w3.org/1999/xlink" xmlns:svgjs="http://svgjs.dev/svgjs" width="100%" height="100%" viewBox="0 0 1000 600"><rect width="1000" height="600" x="0" y="0" fill="#e2d1f9"/><g><rect width="333.3333333333333" height="333.3333333333333" rx="13.333333333333334" ry="13.333333333333334" y="396.9816581985099" fill="#317773" transform="matrix(0.33354734232724437,0,0,0.3335473423272444,-54.401725243778785,111.99660348018915)" x="619.4886474609375"/><path d="M578.2954633992068 638.6483315304412L537.8598577281199 638.6483315304412L537.8598577281199 632.0511093717705Q543.9835950428669 632.0511093717705 547.1717263252867 630.8200487775688Q550.3598576077065 629.5574225271055 552.1591000146167 626.3692912446857Q553.9899080777884 623.1811599622658 555.7891504846987 617.9728266791049L555.7891504846987 617.9728266791049L603.9899075961348 488.64833297540224L616.9318266633835 488.64833297540224L664.2171797432337 619.551109492184Q666.0164221501439 624.7910084316065 667.7209675882693 627.5056548701026Q669.4255130263948 630.2518669648603 672.6136443088146 631.1357053401846Q675.8017755912344 632.0511093717705 681.2626341244882 632.0511093717705L681.2626341244882 632.0511093717705L681.2626341244882 638.6483315304412L629.210866949139 638.6483315304412L629.210866949139 632.0511093717705L637.6073315147198 632.0511093717705Q642.8472304541425 632.0511093717705 643.9835940795595 629.1155033394433Q645.1199577049765 626.1483316508546 643.5416748918974 621.8238367430179L643.5416748918974 621.8238367430179L604.431826783797 512.2910095153273L603.7689480023037 512.2910095153273L564.4381403003722 622.5182811807726Q563.0808170811241 626.8427760886094 564.0909180814948 629.4311599020591Q565.132584738127 632.0511093717705 569.8989988336259 632.0511093717705L569.8989988336259 632.0511093717705L578.2954633992068 632.0511093717705L578.2954633992068 638.6483315304412ZM630.7891497622181 581.8301502595931L577.3800593676209 581.8301502595931L580.3472310562097 574.0965644755054L628.0745033237221 574.0965644755054L630.7891497622181 581.8301502595931ZM750.107330430999 638.6483315304412L694.2045531917369 638.6483315304412L694.2045531917369 632.0511093717705Q702.6325834135794 632.0511093717705 706.2626338836612 631.1357053401846Q709.8926843537432 630.2518669648603 710.8080883853291 627.5056548701026Q711.7234924169151 624.7910084316065 711.7234924169151 619.3301498983528L711.7234924169151 619.3301498983528L711.7234924169151 508.18747420132166Q711.7234924169151 502.7266156680679 710.8080883853291 500.01196922957183Q709.8926843537432 497.29732279107577 706.2626338836612 496.2556561344436Q702.6325834135794 495.2455551340729 694.2045531917369 495.2455551340729L694.2045531917369 495.2455551340729L694.2045531917369 488.64833297540224L750.107330430999 488.64833297540224L750.107330430999 495.2455551340729Q741.9318254592492 495.2455551340729 738.175512364121 496.2556561344436Q734.4507649252542 497.29732279107577 733.5353608936684 500.01196922957183Q732.6199568620825 502.7266156680679 732.6199568620825 508.18747420132166L732.6199568620825 508.18747420132166L732.6199568620825 556.1357060626651L805.7891480764301 556.1357060626651L805.7891480764301 508.18747420132166Q805.7891480764301 502.7266156680679 804.9053097011059 500.01196922957183Q803.98990566952 497.29732279107577 800.359855199438 496.2556561344436Q796.6982390730944 495.2455551340729 788.3017745075136 495.2455551340729L788.3017745075136 495.2455551340729L788.3017745075136 488.64833297540224L844.2045517467758 488.64833297540224L844.2045517467758 495.2455551340729Q836.029046775026 495.2455551340729 832.2727336798977 496.2556561344436Q828.5164205847694 497.29732279107577 827.6325822094451 500.01196922957183Q826.7171781778593 502.7266156680679 826.7171781778593 508.18747420132166L826.7171781778593 508.18747420132166L826.7171781778593 619.3301498983528Q826.7171781778593 624.7910084316065 827.7272791782299 627.5056548701026Q828.768945834862 630.2518669648603 832.398996304944 631.1357053401846Q836.029046775026 632.0511093717705 844.2045517467758 632.0511093717705L844.2045517467758 632.0511093717705L844.2045517467758 638.6483315304412L788.3017745075136 638.6483315304412L788.3017745075136 632.0511093717705Q796.6982390730944 632.0511093717705 800.359855199438 631.1357053401846Q803.98990566952 630.2518669648603 804.9053097011059 627.5056548701026Q805.7891480764301 624.7910084316065 805.7891480764301 619.3301498983528L805.7891480764301 619.3301498983528L805.7891480764301 564.7846958783387L732.6199568620825 564.7846958783387L732.6199568620825 619.3301498983528Q732.6199568620825 624.7910084316065 733.5353608936684 627.5056548701026Q734.4507649252542 630.2518669648603 738.175512364121 631.1357053401846Q741.9318254592492 632.0511093717705 750.107330430999 632.0511093717705L750.107330430999 632.0511093717705L750.107330430999 638.6483315304412ZM909.6717228332975 638.6483315304412L864.2171778166189 638.6483315304412L864.2171778166189 632.0511093717705L870.5618747251971 632.0511093717705Q877.8535413216225 632.0511093717705 879.5580867597479 629.4311599020591Q881.2626321978734 626.8427760886094 881.2626321978734 620.0245943361076L881.2626321978734 620.0245943361076L881.2626321978734 508.18747420132166Q881.2626321978734 502.50565607423687 880.2209655412412 499.7910096357408Q879.2108645408705 497.04479754098315 875.5808140707886 496.1609591656588Q871.9507636007066 495.2455551340729 863.9962182227879 495.2455551340729L863.9962182227879 495.2455551340729L863.9962182227879 488.64833297540224L904.2108643000437 488.64833297540224L949.8863689105533 600.2329278600955L950.359853754477 600.2329278600955L996.2563179588176 488.64833297540224L1034.450762035332 488.64833297540224L1034.450762035332 495.2455551340729Q1026.4962166574132 495.2455551340729 1022.7399035622851 496.1609591656588Q1018.9835904671568 497.04479754098315 1017.9734894667862 499.7910096357408Q1016.9318228101539 502.50565607423687 1016.9318228101539 508.18747420132166L1016.9318228101539 508.18747420132166L1016.9318228101539 619.3301498983528Q1016.9318228101539 624.7910084316065 1018.068186435571 627.5056548701026Q1019.2045500609879 630.2518669648603 1022.9608631561161 631.1357053401846Q1026.7171762512444 632.0511093717705 1034.450762035332 632.0511093717705L1034.450762035332 632.0511093717705L1034.450762035332 638.6483315304412L978.768944389901 638.6483315304412L978.768944389901 632.0511093717705Q987.1654089554819 632.0511093717705 990.7954594255638 631.0410083713998Q994.4255098956459 629.9993417147676 995.4671765522781 627.2846952762716Q996.4772775526487 624.5700488377755 996.4772775526487 619.3301498983528L996.4772775526487 619.3301498983528L996.4772775526487 509.1028782329075L996.0353583649865 509.1028782329075L945.5618740027165 632.7455538095253L941.4899043449723 632.7455538095253L890.353541201209 509.1028782329075L889.8800563572853 509.1028782329075L889.8800563572853 620.0245943361076Q889.8800563572853 627.5056548701026 891.489904826626 629.7783821209366Q893.0681876397051 632.0511093717705 901.243692611455 632.0511093717705L901.243692611455 632.0511093717705L909.6717228332975 632.0511093717705L909.6717228332975 638.6483315304412Z " fill="#e2d1f9" transform="matrix(0.33354734232724437,0,0,0.3335473423272444,-54.401725243778785,111.99660348018915)"/><path d="M1065.6805126295715 603.4762317143297L1036.1553137061273 603.4762317143297L1036.1553137061273 598.6590837244783Q1040.6267333713483 598.6590837244783 1042.9546374238603 597.7601900804389Q1045.2825414763722 596.8382478814242 1046.5963091099682 594.5103438289123Q1047.9331252985394 592.1824397764003 1049.2468929321353 588.3794282054648L1049.2468929321353 588.3794282054648L1084.4420363795195 493.94949847138935L1093.8919439194196 493.94949847138935L1128.4186792725184 589.5318559542332Q1129.732446906114 593.3579160801439 1130.977068874784 595.3400918080255Q1132.2216908434539 597.3453160908823 1134.5495948959658 597.9906756301925Q1136.8774989484778 598.6590837244783 1140.8648989592161 598.6590837244783L1140.8648989592161 598.6590837244783L1140.8648989592161 603.4762317143297L1102.8578318048371 603.4762317143297L1102.8578318048371 598.6590837244783L1108.9887474282846 598.6590837244783Q1112.8148075541953 598.6590837244783 1113.6445555333084 596.5155681117691Q1114.4743035124218 594.3490039440846 1113.3218757636535 591.1913519124596L1113.3218757636535 591.1913519124596L1084.7647161491745 511.21286614793866L1084.280696494692 511.21286614793866L1055.5621969953856 591.6984201219176Q1054.571109131445 594.8560721535428 1055.3086628906567 596.7460536615229Q1056.0692652048438 598.6590837244783 1059.549597006124 598.6590837244783L1059.549597006124 598.6590837244783L1065.6805126295715 598.6590837244783L1065.6805126295715 603.4762317143297ZM1104.0102595536055 561.9888327586705L1065.0121045352857 561.9888327586705L1067.1786687029703 556.3419367897058L1102.028083825724 556.3419367897058L1104.0102595536055 561.9888327586705ZM1185.9939696009833 605.2970675573837L1185.9939696009833 605.2970675573837Q1174.3774978933986 605.2970675573837 1166.3335522069958 600.3185796827046Q1158.289606520593 595.3400918080255 1154.2100122899533 586.374203922608Q1150.1534666142888 577.4313645921659 1150.1534666142888 565.3078246751232L1150.1534666142888 565.3078246751232Q1150.1534666142888 556.5032766745333 1152.3891764468992 548.9663991975885Q1154.6248862795096 541.4064731656684 1159.1193544997063 535.8517714166052Q1163.590774164927 530.2970696675419 1170.7358262072908 527.1394176359167Q1177.857829694679 523.9817656042915 1187.492125674382 523.9817656042915L1187.492125674382 523.9817656042915Q1195.4669256958587 523.9817656042915 1201.6900355392077 526.148329771976Q1207.9131453825566 528.2918453846851 1211.5548170686643 532.2792453954235Q1215.1964887547724 536.2666454061617 1215.1964887547724 542.074881259954L1215.1964887547724 542.074881259954Q1215.1964887547724 546.22362115552 1213.0529731420631 548.8050593127609Q1210.8864089743788 551.3634489150267 1206.5763291939852 551.3634489150267L1206.5763291939852 551.3634489150267Q1202.4275892984194 551.3634489150267 1200.2610251307349 549.0355448625146Q1198.1175095180258 546.730689364978 1198.1175095180258 543.2273090087224L1198.1175095180258 543.2273090087224Q1198.1175095180258 540.5767251865552 1199.0164031620652 539.0785691131564Q1199.9383453610799 537.6034615947331 1200.8602875600945 536.5893251758168Q1201.7591812041337 535.5982373118761 1201.7591812041337 534.2844696782803L1201.7591812041337 534.2844696782803Q1201.7591812041337 531.9565656257682 1198.3710436227548 530.550603772271Q1194.9598574864008 529.1215933637982 1189.6586898420665 529.1215933637982L1189.6586898420665 529.1215933637982Q1182.6749776845304 529.1215933637982 1177.2816158202947 532.2100997304973Q1171.888253956059 535.275557542221 1168.8227961443354 542.7432893542397Q1165.7573383326117 550.2110211662583 1165.7573383326117 563.4869888320693L1165.7573383326117 563.4869888320693Q1165.7573383326117 576.0945484035947 1168.6614562595078 583.8849599852684Q1171.5655741864039 591.6984201219176 1176.9589360506397 595.1787519231979Q1182.3522979148754 598.6590837244783 1189.6586898420665 598.6590837244783L1189.6586898420665 598.6590837244783Q1197.126421654085 598.6590837244783 1201.6900355392077 596.0084999023111Q1206.2536494243302 593.3579160801439 1208.7428933616698 589.7853900589622Q1211.2321372990093 586.2128640377805 1212.22322516295 583.8849599852684L1212.22322516295 583.8849599852684L1216.2106251736884 586.2128640377805Q1215.5422170794027 588.3794282054648 1213.7213812363489 591.5370802370901Q1211.8774968383195 594.6716837137399 1208.4893592569406 597.829335745365Q1205.0781731205866 600.9869877769902 1199.6156655914247 603.1535519446746Q1194.1301095072877 605.2970675573837 1185.9939696009833 605.2970675573837ZM1286.554814958506 605.1357276725561L1286.554814958506 605.1357276725561Q1283.581551366684 605.1357276725561 1281.1614530942704 604.3059796934429Q1278.7644033768324 603.4762317143297 1277.358441523335 600.6643080073351Q1275.9524796698377 597.829335745365 1275.9524796698377 591.8597600067451L1275.9524796698377 591.8597600067451L1275.9524796698377 546.730689364978Q1275.9524796698377 538.7558893435014 1272.633487753385 534.3536153432063Q1269.314495836932 529.9513413429114 1260.8326276059975 529.9513413429114L1260.8326276059975 529.9513413429114Q1256.6838877104315 529.9513413429114 1253.2957501290527 531.0346234267536Q1249.8845639926985 532.1179055105958 1247.8101940449155 533.6160615839947Q1245.7358240971325 535.1142176573935 1245.7358240971325 536.4279852909893L1245.7358240971325 536.4279852909893Q1245.7358240971325 537.7648014795606 1246.9804460658024 538.5945494586738Q1248.225068034472 539.4242974377869 1249.4696900031417 540.7380650713828Q1250.7143119718116 542.074881259954 1250.7143119718116 545.0711934067517L1250.7143119718116 545.0711934067517Q1250.7143119718116 548.551525208032 1248.7321362439302 550.625895155815Q1246.7269119610733 552.7002651035979 1243.0852402749654 552.7002651035979L1243.0852402749654 552.7002651035979Q1239.2591801490546 552.7002651035979 1237.0234703164442 550.3723610510859Q1234.7877604838336 548.0444569985739 1234.7877604838336 543.895717103008L1234.7877604838336 543.895717103008Q1234.7877604838336 538.9172292283289 1238.014558180385 534.4458095631078Q1241.2644044319113 529.9513413429114 1248.0637281496445 527.0472234160152Q1254.8630518673776 524.1431054891191 1265.3270958261937 524.1431054891191L1265.3270958261937 524.1431054891191Q1277.2662473034336 524.1431054891191 1283.581551366684 529.0524476988721Q1289.873806874959 533.9387413536498 1289.873806874959 547.2147090194608L1289.873806874959 547.2147090194608L1289.873806874959 586.5585923624109Q1289.873806874959 593.1965761953164 1291.3028172834315 595.501431692853Q1292.708779136929 597.829335745365 1295.866431168554 597.829335745365L1295.866431168554 597.829335745365Q1297.3415386869776 597.829335745365 1298.3556751058936 597.5066559757099Q1299.3467629698343 597.1609276510794 1300.4991907186027 596.6769079965967L1300.4991907186027 596.6769079965967L1301.6746670223465 600.8256478921626Q1299.8307826243172 601.9780756409309 1296.2813051581106 603.5684259342312Q1292.708779136929 605.1357276725561 1286.554814958506 605.1357276725561ZM1251.0600402964421 605.2970675573837L1251.0600402964421 605.2970675573837Q1242.4168321806799 605.2970675573837 1236.4472564420598 601.2405218817191Q1230.47768070344 597.1609276510794 1230.47768070344 588.70210797512L1230.47768070344 588.70210797512Q1230.47768070344 580.7503565086186 1236.1245766724048 574.0201784558117Q1241.7484240863942 567.2900004030048 1252.7886819195946 562.5650466330546Q1263.8289397527951 557.8400928631046 1279.9168311256008 555.857917135223L1279.9168311256008 555.857917135223L1279.9168311256008 560.8364050099021Q1262.4921235642237 563.971008486552 1253.9641582233382 569.7792443403443Q1245.4131443274773 575.5874801941366 1245.4131443274773 584.7147079643817L1245.4131443274773 584.7147079643817Q1245.4131443274773 590.5229438181739 1248.8012819088563 593.42706174507Q1252.2124680452105 596.3311796719662 1258.343383668658 596.3311796719662L1258.343383668658 596.3311796719662Q1262.8378518888544 596.3311796719662 1266.6408634597897 594.6716837137399Q1270.4669235857004 593.0121877555134 1273.6937212822518 590.6151380380754Q1276.9435675337786 588.2180883206372 1279.7554912407732 585.8901842681253L1279.7554912407732 585.8901842681253L1279.7554912407732 591.1913519124596Q1275.4454114603795 595.1787519231979 1271.0431374600848 598.336403954823Q1266.6408634597897 601.4940559864483 1261.8467640249137 603.3840374944283Q1257.029616035062 605.2970675573837 1251.0600402964421 605.2970675573837ZM1341.5025700197793 605.4584074422112L1341.5025700197793 605.4584074422112Q1326.889786165397 605.4584074422112 1319.1685202486494 595.2709461430993Q1311.4472543319016 585.0604362890122 1311.4472543319016 565.9762327694089L1311.4472543319016 565.9762327694089Q1311.4472543319016 551.2021090301992 1315.8495283321968 541.9135413751264Q1320.2518023324917 532.624973720054 1328.2266023539682 528.2918453846851Q1336.1783538204697 523.9817656042915 1346.642397779286 523.9817656042915L1346.642397779286 523.9817656042915Q1353.6030613818466 523.9817656042915 1358.1666752669692 525.894795667247Q1362.7302891520917 527.8078257302024 1365.7957469638154 530.3662153324681Q1368.8842533305144 532.947653489709 1371.189108828051 534.768489332763L1371.189108828051 534.768489332763L1371.189108828051 543.2273090087224Q1368.8842533305144 539.9083170922696 1365.5652614140618 536.6815193957184Q1362.2462694976089 533.4547216991671 1358.0053353821415 531.2881575314826Q1353.7644012666742 529.1215933637982 1348.4632336223399 529.1215933637982L1348.4632336223399 529.1215933637982Q1338.344917988154 529.1215933637982 1332.6980220191895 537.1885876051764Q1327.0511260502246 545.2325332915792 1327.0511260502246 563.971008486552L1327.0511260502246 563.971008486552Q1327.0511260502246 580.404628183988 1331.8682740400764 589.4627102893071Q1336.6854220299278 598.4977438396506 1347.3108058735716 598.4977438396506L1347.3108058735716 598.4977438396506Q1352.6119735179059 598.4977438396506 1356.6685191935703 596.26203400704Q1360.7481134242103 594.0263241744296 1363.9749111207614 591.1222062475334Q1367.224757372288 588.2180883206372 1369.7140013096277 586.0515241529529L1369.7140013096277 586.0515241529529L1369.7140013096277 593.0121877555134Q1367.7087770267708 594.6716837137399 1363.9057654558353 597.6679958605374Q1360.0797053299245 600.6643080073351 1354.5941492457873 603.0613577247732Q1349.1316417166256 605.4584074422112 1341.5025700197793 605.4584074422112ZM1391.1030603267675 603.4762317143297L1368.0545053514013 603.4762317143297L1366.3950093931749 592.3668282162032L1366.3950093931749 504.57488231503316Q1366.3950093931749 500.0804140948368 1365.3808729742586 498.60530657641334Q1364.389785110318 497.1071505030145 1361.2321330786929 497.1071505030145L1361.2321330786929 497.1071505030145L1355.4238972249004 497.1071505030145L1355.4238972249004 492.29000251316296L1375.6835770482473 488.6483308270551L1380.316336598296 488.6483308270551L1380.316336598296 590.8686721428044Q1380.316336598296 595.685820132656 1381.745347006769 597.1609276510794Q1383.1513088602662 598.6590837244783 1386.792980546374 598.6590837244783L1386.792980546374 598.6590837244783L1391.1030603267675 598.6590837244783L1391.1030603267675 603.4762317143297ZM1367.7087770267708 532.2792453954235L1365.8879411837167 532.2792453954235L1365.8879411837167 529.7900014580839L1367.7087770267708 529.7900014580839L1367.7087770267708 532.2792453954235ZM1437.9146754817364 605.2970675573837L1437.9146754817364 605.2970675573837Q1419.8215598260738 605.2970675573837 1411.2705459302128 594.7638779336413Q1402.7195320343521 584.2306883098989 1402.7195320343521 565.4691645599507L1402.7195320343521 565.4691645599507Q1402.7195320343521 552.5389252187704 1406.6377863801642 543.2273090087224Q1410.5329921710013 533.9387413536498 1418.4155979725765 528.9602534789707Q1426.2982037741517 523.9817656042915 1438.076015366564 523.9817656042915L1438.076015366564 523.9817656042915Q1448.54005932538 523.9817656042915 1454.9936547184827 527.5542916254733Q1461.4702986665607 531.1268176466551 1464.950630467841 537.0041991653735Q1468.4540108240967 542.9046292390672 1469.6986327927664 549.8652928416278Q1470.9432547614363 556.8490049991638 1470.9432547614363 563.8096686017244L1470.9432547614363 563.8096686017244L1470.9432547614363 565.3078246751232L1415.16575172105 565.3078246751232L1415.3501401608528 560.006657030789L1455.5007229279408 560.006657030789Q1455.5007229279408 550.0496812814308 1453.933421189616 543.1581633437963Q1452.3430708963156 536.2666454061617 1448.6092049903064 532.69411938498Q1444.875339084297 529.1215933637982 1438.2373552513914 529.1215933637982L1438.2373552513914 529.1215933637982Q1431.2766916488308 529.1215933637982 1426.8744176485359 532.947653489709Q1422.472143648241 536.7737136156198 1420.397773700458 544.149251207737Q1418.323403752675 551.5247887998542 1418.1620638678473 562.3115125283257L1418.1620638678473 562.3115125283257Q1418.1620638678473 569.4565645706891 1419.084006066862 575.9332085187671Q1419.9828997109014 582.409852466845 1422.5643378681425 587.5496802263517Q1425.122727470408 592.6895079858583 1429.8707297953335 595.685820132656Q1434.5956835652835 598.6590837244783 1442.2247552621297 598.6590837244783L1442.2247552621297 598.6590837244783Q1449.3698073044934 598.6590837244783 1454.002566854542 596.1006941222125Q1458.658374959566 593.5192559649715 1461.4702986665607 589.3705160694055Q1464.3052709285307 585.2217761738397 1465.780378446954 580.9116963934462L1465.780378446954 580.9116963934462L1470.2748466671505 582.8938721213276Q1468.4540108240967 588.5407680902924 1464.8814848029149 593.6805958497991Q1461.308958781733 598.8204236093057 1454.9245090535567 602.0702698608325Q1448.54005932538 605.2970675573837 1437.9146754817364 605.2970675573837ZM1615.3194031271305 603.4762317143297L1578.9718319309777 603.4762317143297L1578.9718319309777 598.6590837244783Q1584.1116596904844 598.6590837244783 1586.347369523095 598.1750640699955Q1588.5830793557054 597.6679958605374 1589.2514874499911 595.8471600174835Q1589.9198955442766 594.0263241744296 1589.9198955442766 590.0389241636913L1589.9198955442766 590.0389241636913L1589.9198955442766 549.7039529568003Q1589.9198955442766 544.5641251972936 1588.5139336907794 540.5767251865552Q1587.107971837282 536.5893251758168 1584.0194654705829 534.2844696782803Q1580.9540076588592 531.9565656257682 1575.8141798993524 531.9565656257682L1575.8141798993524 531.9565656257682Q1570.997031909501 531.9565656257682 1567.2631660034917 534.0309355735512Q1563.5293000974825 536.1053055213342 1560.6251821705862 539.4242974377869Q1557.72106424369 542.7432893542397 1555.2318203063505 546.730689364978L1555.2318203063505 546.730689364978L1555.2318203063505 538.9172292283289Q1560.048968296202 532.1179055105958 1566.8482920139352 528.0613598349314Q1573.647615731668 523.9817656042915 1582.959231941716 523.9817656042915L1582.959231941716 523.9817656042915Q1593.5615672303848 523.9817656042915 1598.7244435448665 529.7900014580839Q1603.8642713043732 535.5982373118761 1603.8642713043732 547.8831171137463L1603.8642713043732 547.8831171137463L1603.8642713043732 589.6931958390608Q1603.8642713043732 593.6805958497991 1604.4404851787574 595.5936259127545Q1605.0166990531416 597.5066559757099 1607.5059429904813 598.0828698500941Q1609.9951869278207 598.6590837244783 1615.3194031271305 598.6590837244783L1615.3194031271305 598.6590837244783L1615.3194031271305 603.4762317143297ZM1520.8894733930547 603.4762317143297L1484.5419021969024 603.4762317143297L1484.5419021969024 598.6590837244783Q1490.0274582810393 598.6590837244783 1492.332313778576 597.9906756301925Q1494.6602178310882 597.3453160908823 1495.2364317054721 595.4322860279269Q1495.8356941348318 593.5192559649715 1495.8356941348318 589.6931958390608L1495.8356941348318 589.6931958390608L1495.8356941348318 540.2540454169001Q1495.8356941348318 535.9439656365066 1494.8215577159156 534.5149552280338Q1493.8304698519748 533.1089933745366 1491.01854614498 533.1089933745366L1491.01854614498 533.1089933745366L1485.3716501760155 533.1089933745366L1485.3716501760155 528.1305054998575L1504.9629219050767 524.8115135834048L1509.4343415702979 524.8115135834048L1509.4343415702979 536.7737136156198L1509.9414097797558 536.7737136156198L1509.9414097797558 590.0389241636913Q1509.9414097797558 594.0263241744296 1510.586769319066 595.8471600174835Q1511.2551774133517 597.6679958605374 1513.6752756857652 598.1750640699955Q1516.0723254032032 598.6590837244783 1520.8894733930547 598.6590837244783L1520.8894733930547 598.6590837244783L1520.8894733930547 603.4762317143297ZM1567.8393798778757 603.4762317143297L1531.9988768911815 603.4762317143297L1531.9988768911815 598.6590837244783Q1537.138704650688 598.6590837244783 1539.3974630382738 598.1750640699955Q1541.6331728708844 597.6679958605374 1542.3015809651702 595.8471600174835Q1542.9469405044804 594.0263241744296 1542.9469405044804 590.0389241636913L1542.9469405044804 590.0389241636913L1542.9469405044804 549.7039529568003Q1542.9469405044804 544.5641251972936 1541.6331728708844 540.5767251865552Q1540.2963566823132 536.5893251758168 1537.138704650688 534.2844696782803Q1534.0041011740382 531.9565656257682 1528.6798849747286 531.9565656257682L1528.6798849747286 531.9565656257682Q1524.04712542468 531.9565656257682 1520.3132595186705 533.9387413536498Q1516.5793936126613 535.9439656365066 1513.6752756857652 539.170763333058Q1510.771157758869 542.3975610296092 1508.2819138215295 546.22362115552L1508.2819138215295 546.22362115552L1508.2819138215295 538.5945494586738Q1511.9235855076374 533.9387413536498 1515.9801311833019 530.7119436570986Q1520.0597254139416 527.4620974055719 1525.0382132886207 525.7334557824195Q1530.0167011632998 523.9817656042915 1535.8249370170922 523.9817656042915L1535.8249370170922 523.9817656042915Q1542.9469405044804 523.9817656042915 1547.6027486095043 526.4710095416311Q1552.2585567145284 528.9602534789707 1554.563412212065 533.2703332593642Q1556.8913162645767 537.6034615947331 1556.8913162645767 543.0659691238948L1556.8913162645767 543.0659691238948L1556.8913162645767 589.6931958390608Q1556.8913162645767 593.5192559649715 1557.5597243588625 595.4322860279269Q1558.2281324531482 597.3453160908823 1560.4638422857588 597.9906756301925Q1562.6995521183692 598.6590837244783 1567.8393798778757 598.6590837244783L1567.8393798778757 598.6590837244783L1567.8393798778757 603.4762317143297ZM1663.2603974758922 603.4762317143297L1626.428806625257 603.4762317143297L1626.428806625257 598.6590837244783Q1631.7299742695911 598.6590837244783 1634.1500725420044 597.9906756301925Q1636.5471222594426 597.3453160908823 1637.1233361338268 595.4322860279269Q1637.7225985631862 593.5192559649715 1637.7225985631862 589.6931958390608L1637.7225985631862 589.6931958390608L1637.7225985631862 540.2540454169001Q1637.7225985631862 535.9439656365066 1636.7084621442702 534.5149552280338Q1635.7173742803293 533.1089933745366 1632.9054505733347 533.1089933745366L1632.9054505733347 533.1089933745366L1627.0972147195425 533.1089933745366L1627.0972147195425 528.1305054998575L1647.3338459879142 524.8115135834048L1651.8283142081104 524.8115135834048L1651.8283142081104 589.6931958390608Q1651.8283142081104 593.6805958497991 1652.473673747421 595.5936259127545Q1653.1420818417064 597.5066559757099 1655.5621801141197 598.0828698500941Q1657.9592298315579 598.6590837244783 1663.2603974758922 598.6590837244783L1663.2603974758922 598.6590837244783L1663.2603974758922 603.4762317143297ZM1644.3605823960918 510.2217782839979L1644.3605823960918 510.2217782839979Q1640.211842500526 510.2217782839979 1637.7225985631862 507.54814590685544Q1635.2333546258467 504.8975620846883 1635.2333546258467 501.2558903985804L1635.2333546258467 501.2558903985804Q1635.2333546258467 497.26849038784206 1637.7225985631862 494.61790656567496Q1640.211842500526 491.9673227435078 1644.3605823960918 491.9673227435078L1644.3605823960918 491.9673227435078Q1647.1725061030866 491.9673227435078 1649.2468760508696 493.21194471217757Q1651.3212459986526 494.4565666808474 1652.4045280824946 496.53093662863034Q1653.4878101663369 498.60530657641334 1653.4878101663369 501.2558903985804L1653.4878101663369 501.2558903985804Q1653.4878101663369 504.8975620846883 1650.9063720090958 507.54814590685544Q1648.324933851855 510.2217782839979 1644.3605823960918 510.2217782839979ZM1713.7136843169687 605.2970675573837L1713.7136843169687 605.2970675573837Q1702.0972126093843 605.2970675573837 1694.0532669229815 600.3185796827046Q1686.0093212365787 595.3400918080255 1681.9297270059387 586.374203922608Q1677.8731813302743 577.4313645921659 1677.8731813302743 565.3078246751232L1677.8731813302743 565.3078246751232Q1677.8731813302743 556.5032766745333 1680.108891162885 548.9663991975885Q1682.3446009954955 541.4064731656684 1686.8390692156918 535.8517714166052Q1691.3104888809128 530.2970696675419 1698.4555409232764 527.1394176359167Q1705.5775444106644 523.9817656042915 1715.2118403903678 523.9817656042915L1715.2118403903678 523.9817656042915Q1723.1866404118446 523.9817656042915 1729.4097502551933 526.148329771976Q1735.632860098542 528.2918453846851 1739.27453178465 532.2792453954235Q1742.9162034707579 536.2666454061617 1742.9162034707579 542.074881259954L1742.9162034707579 542.074881259954Q1742.9162034707579 546.22362115552 1740.7726878580488 548.8050593127609Q1738.6061236903643 551.3634489150267 1734.2960439099709 551.3634489150267L1734.2960439099709 551.3634489150267Q1730.147304014405 551.3634489150267 1727.9807398467206 549.0355448625146Q1725.8372242340115 546.730689364978 1725.8372242340115 543.2273090087224L1725.8372242340115 543.2273090087224Q1725.8372242340115 540.5767251865552 1726.7361178780507 539.0785691131564Q1727.6580600770653 537.6034615947331 1728.58000227608 536.5893251758168Q1729.4788959201194 535.5982373118761 1729.4788959201194 534.2844696782803L1729.4788959201194 534.2844696782803Q1729.4788959201194 531.9565656257682 1726.0907583387407 530.550603772271Q1722.6795722023862 529.1215933637982 1717.378404558052 529.1215933637982L1717.378404558052 529.1215933637982Q1710.3946924005163 529.1215933637982 1705.0013305362804 532.2100997304973Q1699.6079686720445 535.275557542221 1696.542510860321 542.7432893542397Q1693.477053048597 550.2110211662583 1693.477053048597 563.4869888320693L1693.477053048597 563.4869888320693Q1693.477053048597 576.0945484035947 1696.3811709754932 583.8849599852684Q1699.2852889023898 591.6984201219176 1704.6786507666252 595.1787519231979Q1710.072012630861 598.6590837244783 1717.378404558052 598.6590837244783L1717.378404558052 598.6590837244783Q1724.8461363700708 598.6590837244783 1729.4097502551933 596.0084999023111Q1733.9733641403157 593.3579160801439 1736.4626080776552 589.7853900589622Q1738.951852014995 586.2128640377805 1739.9429398789357 583.8849599852684L1739.9429398789357 583.8849599852684L1743.930339889674 586.2128640377805Q1743.2619317953884 588.3794282054648 1741.4410959523343 591.5370802370901Q1739.597211554305 594.6716837137399 1736.2090739729263 597.829335745365Q1732.797887836572 600.9869877769902 1727.3353803074103 603.1535519446746Q1721.8498242232731 605.2970675573837 1713.7136843169687 605.2970675573837ZM1838.6829493934047 603.4762317143297L1797.8639585320311 603.4762317143297L1797.8639585320311 598.6590837244783Q1803.9948741554786 598.6590837244783 1806.6454579776455 597.9906756301925Q1809.2960417998124 597.3453160908823 1809.9644498940984 595.3400918080255Q1810.6328579883839 593.3579160801439 1810.6328579883839 589.3705160694055L1810.6328579883839 589.3705160694055L1810.6328579883839 508.21655400114105Q1810.6328579883839 504.22915399040266 1809.9644498940984 502.24697826252117Q1809.2960417998124 500.26480253463967 1806.6454579776455 499.5042002204526Q1803.9948741554786 498.76664646124084 1797.8639585320311 498.76664646124084L1797.8639585320311 498.76664646124084L1797.8639585320311 493.94949847138935L1838.6829493934047 493.94949847138935L1838.6829493934047 498.76664646124084Q1832.7133736547848 498.76664646124084 1829.9705956127164 499.5042002204526Q1827.2278175706476 500.26480253463967 1826.559409476362 502.24697826252117Q1825.8910013820764 504.22915399040266 1825.8910013820764 508.21655400114105L1825.8910013820764 508.21655400114105L1825.8910013820764 543.2273090087224L1879.3406003699508 543.2273090087224L1879.3406003699508 508.21655400114105Q1879.3406003699508 504.22915399040266 1878.672192275665 502.24697826252117Q1878.0037841813796 500.26480253463967 1875.3532003592122 499.5042002204526Q1872.7026165370453 498.76664646124084 1866.5486523586223 498.76664646124084L1866.5486523586223 498.76664646124084L1866.5486523586223 493.94949847138935L1907.3906917749714 493.94949847138935L1907.3906917749714 498.76664646124084Q1901.398067481376 498.76664646124084 1898.678337994283 499.5042002204526Q1895.9355599522144 500.26480253463967 1895.2671518579289 502.24697826252117Q1894.5987437636431 504.22915399040266 1894.5987437636431 508.21655400114105L1894.5987437636431 508.21655400114105L1894.5987437636431 589.3705160694055Q1894.5987437636431 593.3579160801439 1895.3593460778302 595.3400918080255Q1896.0968998370422 597.3453160908823 1898.7474836592091 597.9906756301925Q1901.398067481376 598.6590837244783 1907.3906917749714 598.6590837244783L1907.3906917749714 598.6590837244783L1907.3906917749714 603.4762317143297L1866.5486523586223 603.4762317143297L1866.5486523586223 598.6590837244783Q1872.7026165370453 598.6590837244783 1875.3532003592122 597.9906756301925Q1878.0037841813796 597.3453160908823 1878.672192275665 595.3400918080255Q1879.3406003699508 593.3579160801439 1879.3406003699508 589.3705160694055L1879.3406003699508 589.3705160694055L1879.3406003699508 549.5426130719727L1825.8910013820764 549.5426130719727L1825.8910013820764 589.3705160694055Q1825.8910013820764 593.3579160801439 1826.559409476362 595.3400918080255Q1827.2278175706476 597.3453160908823 1829.9705956127164 597.9906756301925Q1832.7133736547848 598.6590837244783 1838.6829493934047 598.6590837244783L1838.6829493934047 598.6590837244783L1838.6829493934047 603.4762317143297ZM1953.188170511024 605.4584074422112L1953.188170511024 605.4584074422112Q1942.0557184579222 605.4584074422112 1936.5932109287605 599.4888317035914Q1931.1076548446233 593.5192559649715 1931.1076548446233 581.7414443725594L1931.1076548446233 581.7414443725594L1931.1076548446233 539.9083170922696Q1931.1076548446233 535.5982373118761 1930.1165669806824 534.1000812384773Q1929.1254791167416 532.624973720054 1926.129166969944 532.624973720054L1926.129166969944 532.624973720054L1920.4822710009794 532.624973720054L1920.4822710009794 527.8078257302024L1940.580610939499 524.8115135834048L1945.2133704895473 524.8115135834048L1945.2133704895473 579.0908605503922Q1945.2133704895473 584.0693484250713 1946.7115265629463 588.2180883206372Q1948.209682636345 592.3668282162032 1951.597820217724 594.8560721535428Q1955.0090063540783 597.3453160908823 1960.4945624382153 597.3453160908823L1960.4945624382153 597.3453160908823Q1965.7957300825497 597.3453160908823 1969.7831300932878 594.9252178184688Q1973.7705301040262 592.5281681010308 1976.9051335806762 588.70210797512Q1980.0627856123012 584.8990964041845 1982.5520295496408 581.0730362782738L1982.5520295496408 581.0730362782738L1982.5520295496408 588.0336998808343Q1979.9014457274739 592.1824397764003 1975.8449000518092 596.26203400704Q1971.7653058211692 600.3185796827046 1966.2106040721062 602.9000178399456Q1960.655902323043 605.4584074422112 1953.188170511024 605.4584074422112ZM2005.6236330799825 603.4762317143297L1980.4085139369317 603.4762317143297L1980.4085139369317 591.8597600067451L1980.0627856123012 591.8597600067451L1980.2241254971289 539.9083170922696Q1980.2241254971289 535.5982373118761 1979.233037633188 534.1000812384773Q1978.2419497692472 532.624973720054 1975.2456376224495 532.624973720054L1975.2456376224495 532.624973720054L1969.6217902084602 532.624973720054L1969.6217902084602 527.8078257302024L1989.6970815920045 524.8115135834048L1994.1685012572254 524.8115135834048L1994.1685012572254 589.6931958390608Q1994.1685012572254 593.5192559649715 1994.836909351511 595.4322860279269Q1995.5053174457967 597.3453160908823 1997.9023671632349 597.9906756301925Q2000.3224654356482 598.6590837244783 2005.6236330799825 598.6590837244783L2005.6236330799825 598.6590837244783L2005.6236330799825 603.4762317143297ZM2062.8762436387924 605.4584074422112L2062.8762436387924 605.4584074422112Q2055.247171941946 605.4584074422112 2049.922955742636 603.2226976096007Q2044.6217880983022 600.9869877769902 2040.9801164121943 598.0828698500941Q2037.315396171111 595.1787519231979 2034.5034724641164 593.0121877555134L2034.5034724641164 593.0121877555134L2037.9838042653967 585.5444559434948Q2039.643300223623 588.2180883206372 2041.971204276135 590.7764779229029Q2044.299108328647 593.3579160801439 2047.1110320356415 595.501431692853Q2049.922955742636 597.6679958605374 2053.4263360988916 598.9126178292072Q2056.906667900172 600.157239797877 2060.8940679109105 600.157239797877L2060.8940679109105 600.157239797877Q2071.173723429924 600.157239797877 2076.6592795140614 592.0210998915727Q2082.121787043223 583.8849599852684 2082.121787043223 565.3078246751232L2082.121787043223 565.3078246751232Q2082.121787043223 549.0355448625146 2077.396833273273 539.9083170922696Q2072.671879503323 530.7810893220246 2061.8851557748517 530.7810893220246L2061.8851557748517 530.7810893220246Q2056.7453280153445 530.7810893220246 2052.5965881197785 532.7863136048815Q2048.447848224213 534.768489332763 2045.1980019726861 537.4190731549301Q2041.971204276135 540.0927055320726 2039.3206204539679 542.3975610296092L2039.3206204539679 542.3975610296092L2039.8046401084503 535.275557542221Q2041.8098643913072 533.2703332593642 2045.3593418575138 530.619749437197Q2048.931867878696 527.9691656150299 2054.486569627759 525.9869898871484Q2060.0643199317974 523.9817656042915 2067.6933916286434 523.9817656042915L2067.6933916286434 523.9817656042915Q2082.2831269280505 523.9817656042915 2090.004392844798 533.7774014688223Q2097.725658761546 543.5730373333529 2097.725658761546 562.9799206226112L2097.725658761546 562.9799206226112Q2097.725658761546 577.9153842466485 2093.323384761251 587.2961461216227Q2088.921110760956 596.6769079965967 2081.130699179282 601.0791819968916Q2073.3402875976085 605.4584074422112 2062.8762436387924 605.4584074422112ZM2033.996404254658 603.4762317143297L2028.8565764951513 603.4762317143297L2028.8565764951513 504.7362221998607Q2028.8565764951513 499.91907421000917 2027.7732944113095 498.51311235651184Q2026.6900123274672 497.1071505030145 2023.0483406413591 497.1071505030145L2023.0483406413591 497.1071505030145L2017.9085128818524 497.1071505030145L2017.9085128818524 492.1286626283354L2038.3064840350517 488.6483308270551L2042.800952255248 488.6483308270551L2042.800952255248 597.6679958605374L2038.9748921293374 597.6679958605374L2033.996404254658 603.4762317143297ZM2043.9533800040163 534.2844696782803L2042.4552239306176 534.2844696782803L2042.4552239306176 532.1179055105958L2043.9533800040163 532.1179055105958L2043.9533800040163 534.2844696782803ZM2185.010536453258 603.4762317143297L2151.8206172887303 603.4762317143297L2151.8206172887303 598.6590837244783L2156.476425393754 598.6590837244783Q2161.7775930380885 598.6590837244783 2163.0222150067584 596.7460536615229Q2164.2668369754283 594.8560721535428 2164.2668369754283 589.8775842788637L2164.2668369754283 589.8775842788637L2164.2668369754283 508.21655400114105Q2164.2668369754283 504.0678141055751 2163.5292832162168 502.0856383776936Q2162.7686809020292 500.0804140948368 2160.1180970798623 499.4350545555265Q2157.4675132576954 498.76664646124084 2151.659277403903 498.76664646124084L2151.659277403903 498.76664646124084L2151.659277403903 493.94949847138935L2181.0231364425194 493.94949847138935L2214.3974440468496 575.426140309309L2214.720123816505 575.426140309309L2248.2327227506876 493.94949847138935L2276.1214742708808 493.94949847138935L2276.1214742708808 498.76664646124084Q2270.313238417088 498.76664646124084 2267.57046037502 499.4350545555265Q2264.827682332951 500.0804140948368 2264.0901285737395 502.0856383776936Q2263.3525748145275 504.0678141055751 2263.3525748145275 508.21655400114105L2263.3525748145275 508.21655400114105L2263.3525748145275 589.3705160694055Q2263.3525748145275 593.3579160801439 2264.182322793641 595.3400918080255Q2265.012070772754 597.3453160908823 2267.731800259847 597.9906756301925Q2270.474578301916 598.6590837244783 2276.1214742708808 598.6590837244783L2276.1214742708808 598.6590837244783L2276.1214742708808 603.4762317143297L2235.4638232943344 603.4762317143297L2235.4638232943344 598.6590837244783Q2241.5947389177823 598.6590837244783 2244.2683712949247 597.9215299652665Q2246.9189551170916 597.1609276510794 2247.656508876303 595.1787519231979Q2248.4171111904902 593.1965761953164 2248.4171111904902 589.3705160694055L2248.4171111904902 589.3705160694055L2248.4171111904902 508.88496209542666L2248.07138286586 508.88496209542666L2211.239792015225 599.1661519339362L2208.243479868427 599.1661519339362L2170.904820808334 508.88496209542666L2170.5821410386784 508.88496209542666L2170.5821410386784 589.8775842788637Q2170.5821410386784 595.3400918080255 2171.7345687874467 596.9995877662518Q2172.9100450911906 598.6590837244783 2178.8796208298104 598.6590837244783L2178.8796208298104 598.6590837244783L2185.010536453258 598.6590837244783L2185.010536453258 603.4762317143297ZM2348.816616663186 605.1357276725561L2348.816616663186 605.1357276725561Q2345.820304516388 605.1357276725561 2343.42325479895 604.3059796934429Q2341.0031565265367 603.4762317143297 2339.597194673039 600.6643080073351Q2338.191232819542 597.829335745365 2338.191232819542 591.8597600067451L2338.191232819542 591.8597600067451L2338.191232819542 546.730689364978Q2338.191232819542 538.7558893435014 2334.8722409030893 534.3536153432063Q2331.5532489866364 529.9513413429114 2323.0944293106772 529.9513413429114L2323.0944293106772 529.9513413429114Q2318.9456894151112 529.9513413429114 2315.534503278757 531.0346234267536Q2312.1233171424024 532.1179055105958 2310.04894719462 533.6160615839947Q2307.974577246837 535.1142176573935 2307.974577246837 536.4279852909893L2307.974577246837 536.4279852909893Q2307.974577246837 537.7648014795606 2309.2191992155067 538.5945494586738Q2310.4638211841766 539.4242974377869 2311.708443152846 540.7380650713828Q2312.953065121516 542.074881259954 2312.953065121516 545.0711934067517L2312.953065121516 545.0711934067517Q2312.953065121516 548.551525208032 2310.9708893936345 550.625895155815Q2308.988713665753 552.7002651035979 2305.32399342467 552.7002651035979L2305.32399342467 552.7002651035979Q2301.5209818537346 552.7002651035979 2299.2622234661485 550.3723610510859Q2297.026513633538 548.0444569985739 2297.026513633538 543.895717103008L2297.026513633538 543.895717103008Q2297.026513633538 538.9172292283289 2300.2763598850643 534.4458095631078Q2303.503157581616 529.9513413429114 2310.302481299349 527.0472234160152Q2317.101805017082 524.1431054891191 2327.565848975898 524.1431054891191L2327.565848975898 524.1431054891191Q2339.5050004531377 524.1431054891191 2345.820304516388 529.0524476988721Q2352.1356085796383 533.9387413536498 2352.1356085796383 547.2147090194608L2352.1356085796383 547.2147090194608L2352.1356085796383 586.5585923624109Q2352.1356085796383 593.1965761953164 2353.541570433136 595.501431692853Q2354.9475322866333 597.829335745365 2358.105184318258 597.829335745365L2358.105184318258 597.829335745365Q2359.603340391657 597.829335745365 2360.594428255598 597.5066559757099Q2361.5855161195386 597.1609276510794 2362.737943868307 596.6769079965967L2362.737943868307 596.6769079965967L2363.913420172051 600.8256478921626Q2362.092584328997 601.9780756409309 2358.520058307815 603.5684259342312Q2354.9475322866333 605.1357276725561 2348.816616663186 605.1357276725561ZM2313.2987934461466 605.2970675573837L2313.2987934461466 605.2970675573837Q2304.655585330384 605.2970675573837 2298.686009591764 601.2405218817191Q2292.7164338531443 597.1609276510794 2292.7164338531443 588.70210797512L2292.7164338531443 588.70210797512Q2292.7164338531443 580.7503565086186 2298.3633298221093 574.0201784558117Q2304.010225791074 567.2900004030048 2315.027435069299 562.5650466330546Q2326.0676929024994 557.8400928631046 2342.17863283028 555.857917135223L2342.17863283028 555.857917135223L2342.17863283028 560.8364050099021Q2324.7539252689035 563.971008486552 2316.2029113730428 569.7792443403443Q2307.6518974771816 575.5874801941366 2307.6518974771816 584.7147079643817L2307.6518974771816 584.7147079643817Q2307.6518974771816 590.5229438181739 2311.063083613536 593.42706174507Q2314.451221194915 596.3311796719662 2320.6051853733375 596.3311796719662L2320.6051853733375 596.3311796719662Q2325.0766050385582 596.3311796719662 2328.9026651644695 594.6716837137399Q2332.7056767354047 593.0121877555134 2335.9555229869316 590.6151380380754Q2339.182320683483 588.2180883206372 2341.9942443904774 585.8901842681253L2341.9942443904774 585.8901842681253L2341.9942443904774 591.1913519124596Q2337.684164610084 595.1787519231979 2333.281890609789 598.336403954823Q2328.9026651644695 601.4940559864483 2324.085517174618 603.3840374944283Q2319.268369184766 605.2970675573837 2313.2987934461466 605.2970675573837ZM2457.6749418118407 603.4762317143297L2421.327370615688 603.4762317143297L2421.327370615688 598.6590837244783Q2426.305858490367 598.6590837244783 2428.633762542879 598.1750640699955Q2430.9616665953913 597.6679958605374 2431.6070261347013 595.8471600174835Q2432.275434228987 594.0263241744296 2432.275434228987 590.0389241636913L2432.275434228987 590.0389241636913L2432.275434228987 549.7039529568003Q2432.275434228987 544.7254650821212 2430.777278155588 540.7380650713828Q2429.3021706371646 536.7737136156198 2425.8909845008106 534.3536153432063Q2422.479798364456 531.9565656257682 2416.855950950467 531.9565656257682L2416.855950950467 531.9565656257682Q2409.203830698645 531.9565656257682 2404.409731263769 536.1053055213342Q2399.5925832739176 540.2540454169001 2395.766523148007 545.7165529460619L2395.766523148007 545.7165529460619L2395.766523148007 538.5945494586738Q2399.7539231587452 533.6160615839947 2403.9026630543112 530.3662153324681Q2408.051402949877 527.1394176359167 2412.937696604655 525.5721158975919Q2417.8470388144074 523.9817656042915 2423.8166145530276 523.9817656042915L2423.8166145530276 523.9817656042915Q2435.110406490957 523.9817656042915 2440.6651082400203 529.9513413429114Q2446.219809989084 535.9439656365066 2446.219809989084 547.8831171137463L2446.219809989084 547.8831171137463L2446.219809989084 589.6931958390608Q2446.219809989084 593.5192559649715 2446.888218083369 595.4322860279269Q2447.556626177655 597.3453160908823 2449.953675895093 597.9906756301925Q2452.350725612531 598.6590837244783 2457.6749418118407 598.6590837244783L2457.6749418118407 598.6590837244783L2457.6749418118407 603.4762317143297ZM2408.051402949877 603.4762317143297L2371.7038317537244 603.4762317143297L2371.7038317537244 598.6590837244783Q2377.1893878378614 598.6590837244783 2379.5172918903736 597.9906756301925Q2381.8221473879103 597.3453160908823 2382.4214098172697 595.4322860279269Q2382.997623691654 593.5192559649715 2382.997623691654 589.6931958390608L2382.997623691654 589.6931958390608L2382.997623691654 540.2540454169001Q2382.997623691654 535.9439656365066 2382.0065358277134 534.5149552280338Q2380.992399408797 533.1089933745366 2378.1804757018026 533.1089933745366L2378.1804757018026 533.1089933745366L2372.5335797328376 533.1089933745366L2372.5335797328376 528.1305054998575L2392.1248514618987 524.8115135834048L2396.59627112712 524.8115135834048L2396.59627112712 537.096393385275L2397.103339336578 537.096393385275L2397.103339336578 590.0389241636913Q2397.103339336578 594.0263241744296 2397.771747430864 595.8471600174835Q2398.417106970174 597.6679958605374 2400.8372052425875 598.1750640699955Q2403.2342549600257 598.6590837244783 2408.051402949877 598.6590837244783L2408.051402949877 598.6590837244783L2408.051402949877 603.4762317143297ZM2527.5351119421757 605.1357276725561L2527.5351119421757 605.1357276725561Q2524.538799795378 605.1357276725561 2522.14175007794 604.3059796934429Q2519.744700360502 603.4762317143297 2518.315689952029 600.6643080073351Q2516.9097280985316 597.829335745365 2516.9097280985316 591.8597600067451L2516.9097280985316 591.8597600067451L2516.9097280985316 546.730689364978Q2516.9097280985316 538.7558893435014 2513.590736182079 534.3536153432063Q2510.2717442656262 529.9513413429114 2501.812924589667 529.9513413429114L2501.812924589667 529.9513413429114Q2497.664184694101 529.9513413429114 2494.2529985577467 531.0346234267536Q2490.864860976368 532.1179055105958 2488.790491028585 533.6160615839947Q2486.716121080802 535.1142176573935 2486.716121080802 536.4279852909893L2486.716121080802 536.4279852909893Q2486.716121080802 537.7648014795606 2487.960743049472 538.5945494586738Q2489.2053650181415 539.4242974377869 2490.4499869868114 540.7380650713828Q2491.6946089554813 542.074881259954 2491.6946089554813 545.0711934067517L2491.6946089554813 545.0711934067517Q2491.6946089554813 548.551525208032 2489.6893846726243 550.625895155815Q2487.707208944743 552.7002651035979 2484.065537258635 552.7002651035979L2484.065537258635 552.7002651035979Q2480.239477132724 552.7002651035979 2478.0037673001134 550.3723610510859Q2475.768057467503 548.0444569985739 2475.768057467503 543.895717103008L2475.768057467503 543.895717103008Q2475.768057467503 538.9172292283289 2478.9948551640546 534.4458095631078Q2482.2216528606054 529.9513413429114 2489.0440251333143 527.0472234160152Q2495.8433488510473 524.1431054891191 2506.284344254888 524.1431054891191L2506.284344254888 524.1431054891191Q2518.246544287103 524.1431054891191 2524.538799795378 529.0524476988721Q2530.8541038586286 533.9387413536498 2530.8541038586286 547.2147090194608L2530.8541038586286 547.2147090194608L2530.8541038586286 586.5585923624109Q2530.8541038586286 593.1965761953164 2532.2600657121257 595.501431692853Q2533.6660275656227 597.829335745365 2536.823679597248 597.829335745365L2536.823679597248 597.829335745365Q2538.3218356706475 597.829335745365 2539.312923534588 597.5066559757099Q2540.3040113985285 597.1609276510794 2541.4794877022728 596.6769079965967L2541.4794877022728 596.6769079965967L2542.6319154510406 600.8256478921626Q2540.8110796079864 601.9780756409309 2537.2385535868048 603.5684259342312Q2533.6660275656227 605.1357276725561 2527.5351119421757 605.1357276725561ZM2492.0172887251365 605.2970675573837L2492.0172887251365 605.2970675573837Q2483.3971291643493 605.2970675573837 2477.4275534257295 601.2405218817191Q2471.434929132134 597.1609276510794 2471.434929132134 588.70210797512L2471.434929132134 588.70210797512Q2471.434929132134 580.7503565086186 2477.0818251010987 574.0201784558117Q2482.728721070064 567.2900004030048 2493.7689789032643 562.5650466330546Q2504.8092367364643 557.8400928631046 2520.8971281092704 555.857917135223L2520.8971281092704 555.857917135223L2520.8971281092704 560.8364050099021Q2503.4724205478933 563.971008486552 2494.9214066520326 569.7792443403443Q2486.3703927561714 575.5874801941366 2486.3703927561714 584.7147079643817L2486.3703927561714 584.7147079643817Q2486.3703927561714 590.5229438181739 2489.7815788925254 593.42706174507Q2493.19276502888 596.3311796719662 2499.3236806523273 596.3311796719662L2499.3236806523273 596.3311796719662Q2503.7951003175485 596.3311796719662 2507.6211604434593 594.6716837137399Q2511.44722056937 593.0121877555134 2514.6740182659214 590.6151380380754Q2517.9008159624727 588.2180883206372 2520.735788224443 585.8901842681253L2520.735788224443 585.8901842681253L2520.735788224443 591.1913519124596Q2516.425708444049 595.1787519231979 2512.023434443754 598.336403954823Q2507.6211604434593 601.4940559864483 2502.8040124536074 603.3840374944283Q2497.9868644637563 605.2970675573837 2492.0172887251365 605.2970675573837ZM2584.2806542915273 638.6483266067387L2584.2806542915273 638.6483266067387Q2574.9920866364546 638.6483266067387 2567.270820719707 636.5048109940295Q2559.5726033579344 634.3382468263451 2555.008989472812 629.7746329412226Q2550.44537558769 625.2110190561001 2550.44537558769 618.089015568712L2550.44537558769 618.089015568712Q2550.44537558769 611.9350513902891 2554.594115483256 607.6249716098957Q2558.742855378822 603.3148918295021 2568.8611710130076 600.3185796827046L2568.8611710130076 600.3185796827046L2579.647894741479 601.4940559864483Q2573.1712507934008 602.485143850389 2569.6909189921203 605.0435334526546Q2566.21058719084 607.6249716098957 2564.9659652221703 610.7826236415208Q2563.7213432535004 613.9402756731461 2563.7213432535004 616.7521993801407L2563.7213432535004 616.7521993801407Q2563.7213432535004 624.3812710769869 2569.852258876948 628.8757392971834Q2575.9831745003953 633.3471589624044 2586.447218459212 633.3471589624044L2586.447218459212 633.3471589624044Q2593.4078820617724 633.3471589624044 2598.8012439260083 631.2727890146214Q2604.1946057902437 629.1984190668385 2607.283112156943 625.2110190561001Q2610.3485699686667 621.2236190453617 2610.3485699686667 615.4153831915694L2610.3485699686667 615.4153831915694Q2610.3485699686667 609.1231276832945 2605.6927618636423 606.0576698715707Q2601.060002313594 602.9691635048716 2589.2591421662064 602.9691635048716L2589.2591421662064 602.9691635048716L2572.8485710237455 602.9691635048716Q2567.2016750547814 602.9691635048716 2562.9607409393134 600.9869877769902Q2558.742855378822 599.0048120491088 2556.414951326309 595.8471600174835Q2554.0870472737975 592.6895079858583 2554.0870472737975 589.0478362997505L2554.0870472737975 589.0478362997505Q2554.0870472737975 583.4009403307857 2559.5726033579344 578.4224524561066Q2565.035110887097 573.4439645814275 2575.6604947307405 569.6179044555167L2575.6604947307405 569.6179044555167L2581.6300704693604 571.4387402985707Q2580.6389826054196 571.6231287383736 2578.0575444481783 572.6142166023144Q2575.499154845913 573.6053044662551 2572.664182583943 575.2648004244815Q2569.852258876948 576.9242963827078 2567.8700831490664 579.0908605503922Q2565.8648588662095 581.2343761631013 2565.8648588662095 583.8849599852684L2565.8648588662095 583.8849599852684Q2565.8648588662095 586.374203922608 2568.9303166779337 588.6329623101939Q2572.0188230446324 590.8686721428044 2580.8003224902473 590.8686721428044L2580.8003224902473 590.8686721428044L2592.92386240729 590.8686721428044Q2608.6890740104404 590.8686721428044 2615.8110774978286 596.26203400704Q2622.956129540192 601.6553958712758 2622.956129540192 611.9350513902891L2622.956129540192 611.9350513902891Q2622.956129540192 621.4080074851647 2617.654961895858 627.2853890038831Q2612.330745696548 633.1858190775769 2603.5492462509337 635.9285971196455Q2594.7446982503434 638.6483266067387 2584.2806542915273 638.6483266067387ZM2584.949062385813 575.7718686339394L2584.949062385813 575.7718686339394Q2577.3199906889668 575.7718686339394 2570.105792981677 573.2826246965999Q2562.891595274388 570.7933807592603 2558.2357871693634 565.2156304552218Q2553.5799790643396 559.6609287061585 2553.5799790643396 550.2110211662583L2553.5799790643396 550.2110211662583Q2553.5799790643396 543.0659691238948 2556.322757106408 538.0874812492157Q2559.065535148477 533.1089933745366 2563.7213432535004 529.9513413429114Q2568.3541028035497 526.8167378662616 2574.000998772514 525.3877274577889Q2579.647894741479 523.9817656042915 2585.2947907104435 523.9817656042915L2585.2947907104435 523.9817656042915Q2593.4078820617724 523.9817656042915 2600.4607398842345 526.6323494264586Q2607.5135977066966 529.3059818036011 2611.9158717069913 535.022023437492Q2616.3181457072865 540.7380650713828 2616.3181457072865 550.0496812814308L2616.3181457072865 550.0496812814308Q2616.3181457072865 559.4995888213309 2611.7545318221637 565.1464847902957Q2607.1909179370414 570.7933807592603 2599.976720229752 573.2826246965999Q2592.762522522462 575.7718686339394 2584.949062385813 575.7718686339394ZM2584.626382616158 570.4476524346298L2584.626382616158 570.4476524346298Q2594.237630040886 570.4476524346298 2597.971495946895 564.8929506855666Q2601.7053618529044 559.3382489365033 2601.7053618529044 549.2199333023176L2601.7053618529044 549.2199333023176Q2601.7053618529044 543.4116974485253 2600.230254334481 538.9172292283289Q2598.732098261082 534.4458095631078 2595.2517664598017 531.9565656257682Q2591.7483861035457 529.4673216884287 2585.456130595271 529.4673216884287L2585.456130595271 529.4673216884287Q2576.1675629401984 529.4673216884287 2572.5028426991153 535.1142176573935Q2568.8611710130076 540.7380650713828 2568.8611710130076 550.3723610510859L2568.8611710130076 550.3723610510859Q2568.8611710130076 558.9925206118728 2572.18016292946 564.7316108007391Q2575.499154845913 570.4476524346298 2584.626382616158 570.4476524346298ZM2628.0959572996985 542.3975610296092L2628.0959572996985 542.3975610296092Q2625.1226937078764 542.3975610296092 2623.278809309847 540.6689194064568Q2621.457973466793 538.9172292283289 2621.457973466793 536.7737136156198L2621.457973466793 536.7737136156198Q2621.457973466793 535.1142176573935 2621.803701791424 534.2844696782803Q2622.1263815610787 533.4547216991671 2622.1263815610787 532.624973720054L2622.1263815610787 532.624973720054Q2622.1263815610787 531.6108373011377 2621.2966335819656 530.7810893220246Q2620.4668856028525 529.9513413429114 2618.8073896446263 529.9513413429114L2618.8073896446263 529.9513413429114Q2617.309233571227 529.9513413429114 2615.0735237386166 531.7030315210393Q2612.837813906006 533.4547216991671 2610.3485699686667 537.7648014795606L2610.3485699686667 537.7648014795606L2607.0295780522138 534.6071494479354Q2609.8415017592088 529.6286615732563 2613.9210959898483 526.8167378662616Q2617.9776416655127 523.9817656042915 2622.794789655364 523.9817656042915L2622.794789655364 523.9817656042915Q2628.2572971845266 523.9817656042915 2631.576289100979 526.8858835311877Q2634.895281017432 529.7900014580839 2634.895281017432 534.6071494479354L2634.895281017432 534.6071494479354Q2634.895281017432 538.0874812492157 2633.166639394279 540.2540454169001Q2631.4149492161514 542.3975610296092 2628.0959572996985 542.3975610296092ZM2681.7068961724003 605.2970675573837L2681.7068961724003 605.2970675573837Q2663.6137805167377 605.2970675573837 2655.062766620877 594.7638779336413Q2646.5117527250163 584.2306883098989 2646.5117527250163 565.4691645599507L2646.5117527250163 565.4691645599507Q2646.5117527250163 552.5389252187704 2650.4300070708287 543.2273090087224Q2654.3252128616655 533.9387413536498 2662.2078186632407 528.9602534789707Q2670.090424464816 523.9817656042915 2681.8682360572284 523.9817656042915L2681.8682360572284 523.9817656042915Q2692.3322800160445 523.9817656042915 2698.785875409147 527.5542916254733Q2705.262519357225 531.1268176466551 2708.7428511585053 537.0041991653735Q2712.2462315147604 542.9046292390672 2713.490853483431 549.8652928416278Q2714.7354754521 556.8490049991638 2714.7354754521 563.8096686017244L2714.7354754521 563.8096686017244L2714.7354754521 565.3078246751232L2658.957972411714 565.3078246751232L2659.142360851517 560.006657030789L2699.292943618605 560.006657030789Q2699.292943618605 550.0496812814308 2697.72564188028 543.1581633437963Q2696.1352915869797 536.2666454061617 2692.40142568097 532.69411938498Q2688.667559774961 529.1215933637982 2682.0295759420555 529.1215933637982L2682.0295759420555 529.1215933637982Q2675.068912339495 529.1215933637982 2670.6666383392 532.947653489709Q2666.264364338905 536.7737136156198 2664.189994391122 544.149251207737Q2662.115624443339 551.5247887998542 2661.9542845585115 562.3115125283257L2661.9542845585115 562.3115125283257Q2661.9542845585115 569.4565645706891 2662.8762267575266 575.9332085187671Q2663.7751204015653 582.409852466845 2666.3565585588067 587.5496802263517Q2668.914948161072 592.6895079858583 2673.6629504859975 595.685820132656Q2678.387904255948 598.6590837244783 2686.016975952794 598.6590837244783L2686.016975952794 598.6590837244783Q2693.1620279951576 598.6590837244783 2697.794787545206 596.1006941222125Q2702.4505956502303 593.5192559649715 2705.262519357225 589.3705160694055Q2708.097491619195 585.2217761738397 2709.5725991376185 580.9116963934462L2709.5725991376185 580.9116963934462L2714.067067357815 582.8938721213276Q2712.2462315147604 588.5407680902924 2708.673705493579 593.6805958497991Q2705.1011794723972 598.8204236093057 2698.7167297442206 602.0702698608325Q2692.3322800160445 605.2970675573837 2681.7068961724003 605.2970675573837ZM2766.3411900419455 603.4762317143297L2728.3341228875665 603.4762317143297L2728.3341228875665 598.6590837244783Q2733.8196789717035 598.6590837244783 2736.12453446924 597.9906756301925Q2738.452438521752 597.3453160908823 2739.0286523961363 595.4322860279269Q2739.627914825496 593.5192559649715 2739.627914825496 589.6931958390608L2739.627914825496 589.6931958390608L2739.627914825496 540.2540454169001Q2739.627914825496 535.9439656365066 2738.61377840658 534.5149552280338Q2737.6226905426392 533.1089933745366 2734.8107668356447 533.1089933745366L2734.8107668356447 533.1089933745366L2729.1638708666796 533.1089933745366L2729.1638708666796 528.1305054998575L2748.755142595741 524.8115135834048L2753.226562260962 524.8115135834048L2753.226562260962 540.4153853017276L2753.73363047042 540.4153853017276L2753.73363047042 589.6931958390608Q2753.73363047042 593.6805958497991 2754.4711842296315 595.5936259127545Q2755.2087379888435 597.5066559757099 2757.882370365986 598.0828698500941Q2760.5329541881533 598.6590837244783 2766.3411900419455 598.6590837244783L2766.3411900419455 598.6590837244783L2766.3411900419455 603.4762317143297ZM2753.73363047042 556.5032766745333L2753.0652223761344 556.6876651143363L2753.0652223761344 541.4064731656684Q2754.217650124903 539.2629575529594 2755.877146083129 536.2666454061617Q2757.536642041355 533.2703332593642 2760.025885978695 530.4584095523694Q2762.5151299160348 527.6464858453749 2765.995461717315 525.7334557824195Q2769.4988420735704 523.820425719464 2773.9702617387916 523.820425719464L2773.9702617387916 523.820425719464Q2779.9398374774114 523.820425719464 2783.189683728938 527.3007575207444Q2786.4164814254896 530.7810893220246 2786.4164814254896 536.9350535004473L2786.4164814254896 536.9350535004473Q2786.4164814254896 541.5678130504959 2784.180771592879 544.5641251972936Q2781.9450617602683 547.5604373440913 2776.9665738855892 547.5604373440913L2776.9665738855892 547.5604373440913Q2772.63344555022 547.5604373440913 2770.489929937511 545.2325332915792Q2768.323365769827 542.9046292390672 2768.323365769827 539.7469772074421L2768.323365769827 539.7469772074421Q2768.323365769827 537.2577332701026 2769.3144536337672 535.7595771967037Q2770.3285900526835 534.2844696782803 2771.319677916624 533.2703332593642Q2772.3107657805654 532.2792453954235 2772.3107657805654 531.2881575314826L2772.3107657805654 531.2881575314826Q2772.3107657805654 530.619749437197 2771.8036975711075 530.2048754476405Q2771.319677916624 529.7900014580839 2770.144201612881 529.7900014580839L2770.144201612881 529.7900014580839Q2767.6549576755415 529.7900014580839 2764.8430339685465 531.8643714058668Q2762.031110261552 533.9387413536498 2759.4496721043106 537.6726072596591Q2756.8682339470697 541.4064731656684 2755.300932208745 546.22362115552Q2753.73363047042 551.0407691453715 2753.73363047042 556.5032766745333L2753.73363047042 556.5032766745333Z " fill="#317773" transform="matrix(0.33354734232724437,0,0,0.3335473423272444,-54.401725243778785,111.99660348018915)"/></g></svg>